<mxfile host="Electron" modified="2025-02-28T14:16:23.193Z" agent="Mozilla/5.0 (Windows NT 10.0; Win64; x64) AppleWebKit/537.36 (KHTML, like Gecko) draw.io/24.6.1 Chrome/124.0.6367.207 Electron/30.0.6 Safari/537.36" etag="32G7EDY7SaXhYTCC8KYb" version="24.6.1" type="device">
  <diagram name="第 1 页" id="L80nJDGsXh-MU_vv5BJ9">
    <mxGraphModel dx="3187" dy="1858" grid="1" gridSize="10" guides="1" tooltips="1" connect="1" arrows="1" fold="1" page="1" pageScale="1" pageWidth="3300" pageHeight="2339" math="0" shadow="0">
      <root>
        <mxCell id="0" />
        <mxCell id="1" parent="0" />
        <mxCell id="kKZ3cRjpU5grqQp407fM-2" value="" style="verticalLabelPosition=bottom;verticalAlign=top;html=1;shape=mxgraph.basic.rect;fillColor2=none;strokeWidth=4;size=20;indent=5;strokeColor=#C4C4C4;" vertex="1" parent="1">
          <mxGeometry x="380" y="80" width="1120" height="950" as="geometry" />
        </mxCell>
        <mxCell id="kKZ3cRjpU5grqQp407fM-4" value="" style="rounded=0;whiteSpace=wrap;html=1;fillColor=#76608a;fontColor=#ffffff;strokeColor=#432D57;strokeWidth=4;" vertex="1" parent="1">
          <mxGeometry x="380" y="80" width="110" height="950" as="geometry" />
        </mxCell>
        <mxCell id="kKZ3cRjpU5grqQp407fM-5" value="&lt;font style=&quot;font-size: 50px;&quot;&gt;智能家庭健康监测系统架构图&lt;/font&gt;" style="text;html=1;align=center;verticalAlign=middle;whiteSpace=wrap;rounded=0;direction=south;fontStyle=1" vertex="1" parent="1">
          <mxGeometry x="390" y="130" width="90" height="820" as="geometry" />
        </mxCell>
        <mxCell id="kKZ3cRjpU5grqQp407fM-7" value="" style="rounded=1;whiteSpace=wrap;html=1;fillColor=#fad7ac;strokeColor=#b46504;strokeWidth=4;" vertex="1" parent="1">
          <mxGeometry x="500" y="80" width="200" height="250" as="geometry" />
        </mxCell>
        <mxCell id="kKZ3cRjpU5grqQp407fM-8" value="&lt;font style=&quot;font-size: 50px;&quot;&gt;应用层&lt;/font&gt;" style="text;html=1;align=center;verticalAlign=middle;whiteSpace=wrap;rounded=0;direction=south;fontStyle=1" vertex="1" parent="1">
          <mxGeometry x="550" y="115" width="90" height="180" as="geometry" />
        </mxCell>
        <mxCell id="kKZ3cRjpU5grqQp407fM-12" value="" style="rounded=0;whiteSpace=wrap;html=1;strokeWidth=3;strokeColor=#356fbb;fillColor=#cce5ff;" vertex="1" parent="1">
          <mxGeometry x="710" y="80" width="780" height="250" as="geometry" />
        </mxCell>
        <mxCell id="kKZ3cRjpU5grqQp407fM-13" value="&lt;div style=&quot;font-size: 35px;&quot;&gt;树莓派&lt;span style=&quot;background-color: initial;&quot;&gt;&lt;br&gt;5&lt;/span&gt;&lt;/div&gt;" style="text;html=1;align=center;verticalAlign=middle;whiteSpace=wrap;rounded=0;strokeWidth=3;direction=south;fontStyle=1" vertex="1" parent="1">
          <mxGeometry x="730" y="110" width="40" height="180" as="geometry" />
        </mxCell>
        <mxCell id="kKZ3cRjpU5grqQp407fM-14" value="" style="rounded=1;whiteSpace=wrap;html=1;fillColor=#b1ddf0;strokeColor=#10739e;" vertex="1" parent="1">
          <mxGeometry x="780" y="90" width="700" height="120" as="geometry" />
        </mxCell>
        <mxCell id="kKZ3cRjpU5grqQp407fM-15" value="" style="rounded=1;whiteSpace=wrap;html=1;fillColor=#b0e3e6;strokeColor=#0e8088;" vertex="1" parent="1">
          <mxGeometry x="780" y="220" width="700" height="100" as="geometry" />
        </mxCell>
        <mxCell id="kKZ3cRjpU5grqQp407fM-16" value="&lt;font style=&quot;font-size: 24px;&quot;&gt;7英寸触摸显示屏&lt;/font&gt;" style="rounded=1;whiteSpace=wrap;html=1;fillColor=#dae8fc;gradientColor=#7ea6e0;strokeColor=#6c8ebf;" vertex="1" parent="1">
          <mxGeometry x="820" y="115" width="140" height="60" as="geometry" />
        </mxCell>
        <mxCell id="kKZ3cRjpU5grqQp407fM-19" value="&lt;font style=&quot;font-size: 24px;&quot;&gt;USB麦克风&lt;/font&gt;" style="rounded=1;whiteSpace=wrap;html=1;fillColor=#dae8fc;strokeColor=#6c8ebf;gradientColor=#7ea6e0;" vertex="1" parent="1">
          <mxGeometry x="1070" y="115" width="130" height="60" as="geometry" />
        </mxCell>
        <mxCell id="kKZ3cRjpU5grqQp407fM-20" value="&lt;font style=&quot;font-size: 24px;&quot;&gt;USB喇叭&lt;/font&gt;" style="rounded=1;whiteSpace=wrap;html=1;fillColor=#dae8fc;gradientColor=#7ea6e0;strokeColor=#6c8ebf;" vertex="1" parent="1">
          <mxGeometry x="1300" y="115" width="120" height="60" as="geometry" />
        </mxCell>
        <mxCell id="kKZ3cRjpU5grqQp407fM-21" value="&lt;font style=&quot;font-size: 24px;&quot;&gt;Qt客户端&lt;/font&gt;" style="rounded=1;whiteSpace=wrap;html=1;fillColor=#dae8fc;gradientColor=#7ea6e0;strokeColor=#6c8ebf;" vertex="1" parent="1">
          <mxGeometry x="1050" y="240" width="190" height="60" as="geometry" />
        </mxCell>
        <mxCell id="kKZ3cRjpU5grqQp407fM-24" value="" style="rounded=1;whiteSpace=wrap;html=1;fillColor=#d5e8d4;strokeColor=#82b366;strokeWidth=4;gradientColor=#97d077;" vertex="1" parent="1">
          <mxGeometry x="500" y="340" width="200" height="290" as="geometry" />
        </mxCell>
        <mxCell id="kKZ3cRjpU5grqQp407fM-25" value="&lt;font style=&quot;font-size: 50px;&quot;&gt;网络层&lt;br&gt;&lt;/font&gt;" style="text;html=1;align=center;verticalAlign=middle;whiteSpace=wrap;rounded=0;direction=south;fontStyle=1" vertex="1" parent="1">
          <mxGeometry x="550" y="405" width="90" height="200" as="geometry" />
        </mxCell>
        <mxCell id="kKZ3cRjpU5grqQp407fM-26" value="" style="rounded=0;whiteSpace=wrap;html=1;strokeWidth=3;fillColor=#d5e8d4;strokeColor=#82b366;gradientColor=#97d077;" vertex="1" parent="1">
          <mxGeometry x="710" y="340" width="780" height="290" as="geometry" />
        </mxCell>
        <mxCell id="kKZ3cRjpU5grqQp407fM-28" value="&lt;div style=&quot;&quot;&gt;&lt;font style=&quot;font-size: 40px;&quot;&gt;&lt;b&gt;WIFI&lt;/b&gt;&lt;/font&gt;&lt;/div&gt;" style="text;html=1;align=center;verticalAlign=middle;whiteSpace=wrap;rounded=0;strokeWidth=3;direction=south;" vertex="1" parent="1">
          <mxGeometry x="722.42" y="540" width="97.58" height="80" as="geometry" />
        </mxCell>
        <mxCell id="kKZ3cRjpU5grqQp407fM-30" value="" style="html=1;strokeWidth=1;shadow=0;dashed=0;shape=mxgraph.ios7.misc.wifi;fillColor=#007AFF;strokeColor=none;buttonText=;strokeColor2=#222222;fontColor=#222222;fontSize=8;verticalLabelPosition=bottom;verticalAlign=top;align=center;sketch=0;" vertex="1" parent="1">
          <mxGeometry x="722.42" y="420" width="107.58" height="100" as="geometry" />
        </mxCell>
        <mxCell id="kKZ3cRjpU5grqQp407fM-31" value="" style="rounded=1;whiteSpace=wrap;html=1;fillColor=#d5e8d4;strokeColor=#82b366;" vertex="1" parent="1">
          <mxGeometry x="850" y="350" width="290" height="270" as="geometry" />
        </mxCell>
        <mxCell id="kKZ3cRjpU5grqQp407fM-32" value="" style="rounded=1;whiteSpace=wrap;html=1;fillColor=#d5e8d4;strokeColor=#82b366;" vertex="1" parent="1">
          <mxGeometry x="1171.21" y="350" width="310" height="270" as="geometry" />
        </mxCell>
        <mxCell id="kKZ3cRjpU5grqQp407fM-33" value="&lt;div style=&quot;font-size: 35px;&quot;&gt;&lt;span style=&quot;background-color: initial;&quot;&gt;阿里云服务器&lt;/span&gt;&lt;/div&gt;" style="text;html=1;align=center;verticalAlign=middle;whiteSpace=wrap;rounded=0;strokeWidth=3;direction=south;fontStyle=1" vertex="1" parent="1">
          <mxGeometry x="885" y="357.5" width="220" height="62.5" as="geometry" />
        </mxCell>
        <mxCell id="kKZ3cRjpU5grqQp407fM-34" value="&lt;div style=&quot;font-size: 35px;&quot;&gt;&lt;span style=&quot;background-color: initial;&quot;&gt;百度智能云&lt;/span&gt;&lt;/div&gt;" style="text;html=1;align=center;verticalAlign=middle;whiteSpace=wrap;rounded=0;strokeWidth=3;direction=south;fontStyle=1" vertex="1" parent="1">
          <mxGeometry x="1216.21" y="357.5" width="220" height="62.5" as="geometry" />
        </mxCell>
        <mxCell id="kKZ3cRjpU5grqQp407fM-36" value="&lt;font style=&quot;font-size: 24px;&quot;&gt;MQTT&lt;/font&gt;" style="rounded=1;whiteSpace=wrap;html=1;fillColor=#e1d5e7;strokeColor=#9673a6;" vertex="1" parent="1">
          <mxGeometry x="925" y="440" width="140" height="60" as="geometry" />
        </mxCell>
        <mxCell id="kKZ3cRjpU5grqQp407fM-37" value="&lt;font style=&quot;font-size: 24px;&quot;&gt;MySQL&lt;/font&gt;" style="rounded=1;whiteSpace=wrap;html=1;fillColor=#e1d5e7;strokeColor=#9673a6;" vertex="1" parent="1">
          <mxGeometry x="925" y="525" width="140" height="60" as="geometry" />
        </mxCell>
        <mxCell id="kKZ3cRjpU5grqQp407fM-38" value="&lt;span style=&quot;font-size: 24px;&quot;&gt;语音识别&lt;/span&gt;" style="rounded=1;whiteSpace=wrap;html=1;fillColor=#e1d5e7;strokeColor=#9673a6;" vertex="1" parent="1">
          <mxGeometry x="1230" y="440" width="135" height="60" as="geometry" />
        </mxCell>
        <mxCell id="kKZ3cRjpU5grqQp407fM-39" value="&lt;span style=&quot;font-size: 24px;&quot;&gt;语音合成&lt;/span&gt;" style="rounded=1;whiteSpace=wrap;html=1;fillColor=#e1d5e7;strokeColor=#9673a6;" vertex="1" parent="1">
          <mxGeometry x="1230" y="525" width="135" height="60" as="geometry" />
        </mxCell>
        <mxCell id="kKZ3cRjpU5grqQp407fM-40" value="&lt;span style=&quot;font-size: 24px;&quot;&gt;文&lt;br&gt;心&lt;br&gt;一&lt;br&gt;言&lt;br&gt;&lt;/span&gt;" style="rounded=1;whiteSpace=wrap;html=1;fillColor=#e1d5e7;strokeColor=#9673a6;direction=south;" vertex="1" parent="1">
          <mxGeometry x="1390" y="440" width="60" height="145" as="geometry" />
        </mxCell>
        <mxCell id="kKZ3cRjpU5grqQp407fM-41" value="" style="rounded=1;whiteSpace=wrap;html=1;fillColor=#1ba1e2;strokeColor=#006EAF;strokeWidth=4;fontColor=#ffffff;" vertex="1" parent="1">
          <mxGeometry x="500" y="640" width="200" height="380" as="geometry" />
        </mxCell>
        <mxCell id="kKZ3cRjpU5grqQp407fM-42" value="&lt;font style=&quot;font-size: 50px;&quot;&gt;感知层&lt;/font&gt;" style="text;html=1;align=center;verticalAlign=middle;whiteSpace=wrap;rounded=0;direction=south;fontStyle=1" vertex="1" parent="1">
          <mxGeometry x="550" y="730" width="90" height="200" as="geometry" />
        </mxCell>
        <mxCell id="kKZ3cRjpU5grqQp407fM-43" value="" style="rounded=0;whiteSpace=wrap;html=1;fillColor=#1ba1e2;strokeColor=#006EAF;fontColor=#ffffff;" vertex="1" parent="1">
          <mxGeometry x="710" y="640" width="780" height="380" as="geometry" />
        </mxCell>
        <mxCell id="kKZ3cRjpU5grqQp407fM-55" value="&lt;div style=&quot;font-size: 35px;&quot;&gt;S&lt;br&gt;T&lt;br&gt;M&lt;br&gt;3&lt;br&gt;2&lt;/div&gt;" style="text;html=1;align=center;verticalAlign=middle;whiteSpace=wrap;rounded=0;strokeWidth=3;direction=south;fontStyle=1" vertex="1" parent="1">
          <mxGeometry x="722.42" y="710" width="50" height="240" as="geometry" />
        </mxCell>
        <mxCell id="kKZ3cRjpU5grqQp407fM-56" value="" style="rounded=1;whiteSpace=wrap;html=1;fillColor=#dae8fc;strokeColor=#6c8ebf;" vertex="1" parent="1">
          <mxGeometry x="780" y="650" width="450" height="360" as="geometry" />
        </mxCell>
        <mxCell id="kKZ3cRjpU5grqQp407fM-59" value="" style="rounded=1;whiteSpace=wrap;html=1;fillColor=#dae8fc;strokeColor=#6c8ebf;" vertex="1" parent="1">
          <mxGeometry x="1240" y="650" width="240" height="360" as="geometry" />
        </mxCell>
        <mxCell id="kKZ3cRjpU5grqQp407fM-47" value="&lt;font style=&quot;font-size: 24px;&quot;&gt;继电器&lt;/font&gt;" style="rounded=1;whiteSpace=wrap;html=1;fillColor=#fff2cc;strokeColor=#d6b656;" vertex="1" parent="1">
          <mxGeometry x="1330" y="730" width="140" height="60" as="geometry" />
        </mxCell>
        <mxCell id="kKZ3cRjpU5grqQp407fM-48" value="&lt;font style=&quot;font-size: 24px;&quot;&gt;舵机&lt;/font&gt;" style="rounded=1;whiteSpace=wrap;html=1;fillColor=#fff2cc;strokeColor=#d6b656;" vertex="1" parent="1">
          <mxGeometry x="1330" y="800" width="140" height="60" as="geometry" />
        </mxCell>
        <mxCell id="kKZ3cRjpU5grqQp407fM-49" value="&lt;font style=&quot;font-size: 24px;&quot;&gt;雾化器&lt;/font&gt;" style="rounded=1;whiteSpace=wrap;html=1;fillColor=#fff2cc;strokeColor=#d6b656;" vertex="1" parent="1">
          <mxGeometry x="1330" y="870" width="140" height="60" as="geometry" />
        </mxCell>
        <mxCell id="kKZ3cRjpU5grqQp407fM-50" value="&lt;font style=&quot;font-size: 24px;&quot;&gt;蜂鸣器&lt;/font&gt;" style="rounded=1;whiteSpace=wrap;html=1;fillColor=#fff2cc;strokeColor=#d6b656;" vertex="1" parent="1">
          <mxGeometry x="1330" y="660" width="140" height="60" as="geometry" />
        </mxCell>
        <mxCell id="kKZ3cRjpU5grqQp407fM-51" value="&lt;font style=&quot;font-size: 24px;&quot;&gt;风扇&lt;/font&gt;" style="rounded=1;whiteSpace=wrap;html=1;fillColor=#fff2cc;strokeColor=#d6b656;" vertex="1" parent="1">
          <mxGeometry x="1330" y="940" width="140" height="60" as="geometry" />
        </mxCell>
        <mxCell id="kKZ3cRjpU5grqQp407fM-61" value="&lt;div style=&quot;font-size: 35px;&quot;&gt;执行器&lt;/div&gt;" style="text;html=1;align=center;verticalAlign=middle;whiteSpace=wrap;rounded=0;strokeWidth=3;direction=south;fontStyle=1" vertex="1" parent="1">
          <mxGeometry x="1250" y="740" width="60" height="180" as="geometry" />
        </mxCell>
        <mxCell id="kKZ3cRjpU5grqQp407fM-62" value="&lt;div style=&quot;font-size: 35px;&quot;&gt;传感器&lt;/div&gt;" style="text;html=1;align=center;verticalAlign=middle;whiteSpace=wrap;rounded=0;strokeWidth=3;direction=south;fontStyle=1" vertex="1" parent="1">
          <mxGeometry x="800" y="740" width="60" height="180" as="geometry" />
        </mxCell>
        <mxCell id="kKZ3cRjpU5grqQp407fM-63" value="&lt;span style=&quot;font-size: 24px;&quot;&gt;心率血氧&lt;/span&gt;" style="rounded=1;whiteSpace=wrap;html=1;fillColor=#fff2cc;strokeColor=#d6b656;" vertex="1" parent="1">
          <mxGeometry x="870" y="670" width="140" height="60" as="geometry" />
        </mxCell>
        <mxCell id="kKZ3cRjpU5grqQp407fM-64" value="&lt;span style=&quot;font-size: 24px;&quot;&gt;体温&lt;/span&gt;&lt;span style=&quot;color: rgba(0, 0, 0, 0); font-family: monospace; font-size: 0px; text-align: start; text-wrap: nowrap;&quot;&gt;%3CmxGraphModel%3E%3Croot%3E%3CmxCell%20id%3D%220%22%2F%3E%3CmxCell%20id%3D%221%22%20parent%3D%220%22%2F%3E%3CmxCell%20id%3D%222%22%20value%3D%22%26lt%3Bspan%20style%3D%26quot%3Bfont-size%3A%2024px%3B%26quot%3B%26gt%3B%E5%BF%83%E7%8E%87%E8%A1%80%E6%B0%A7%26lt%3B%2Fspan%26gt%3B%22%20style%3D%22rounded%3D1%3BwhiteSpace%3Dwrap%3Bhtml%3D1%3BfillColor%3D%23fff2cc%3BstrokeColor%3D%23d6b656%3B%22%20vertex%3D%221%22%20parent%3D%221%22%3E%3CmxGeometry%20x%3D%22870%22%20y%3D%22670%22%20width%3D%22140%22%20height%3D%2260%22%20as%3D%22geometry%22%2F%3E%3C%2FmxCell%3E%3C%2Froot%3E%3C%2FmxGraphModel%3E&lt;/span&gt;" style="rounded=1;whiteSpace=wrap;html=1;fillColor=#fff2cc;strokeColor=#d6b656;" vertex="1" parent="1">
          <mxGeometry x="1040" y="670" width="140" height="60" as="geometry" />
        </mxCell>
        <mxCell id="kKZ3cRjpU5grqQp407fM-65" value="&lt;span style=&quot;font-size: 24px;&quot;&gt;空气质量&lt;/span&gt;" style="rounded=1;whiteSpace=wrap;html=1;fillColor=#fff2cc;strokeColor=#d6b656;" vertex="1" parent="1">
          <mxGeometry x="870" y="790" width="140" height="60" as="geometry" />
        </mxCell>
        <mxCell id="kKZ3cRjpU5grqQp407fM-66" value="&lt;span style=&quot;font-size: 24px;&quot;&gt;PM2.5&lt;/span&gt;" style="rounded=1;whiteSpace=wrap;html=1;fillColor=#fff2cc;strokeColor=#d6b656;" vertex="1" parent="1">
          <mxGeometry x="1040" y="790" width="140" height="60" as="geometry" />
        </mxCell>
        <mxCell id="kKZ3cRjpU5grqQp407fM-67" value="&lt;span style=&quot;font-size: 24px;&quot;&gt;噪声&lt;/span&gt;" style="rounded=1;whiteSpace=wrap;html=1;fillColor=#fff2cc;strokeColor=#d6b656;" vertex="1" parent="1">
          <mxGeometry x="870" y="910" width="140" height="60" as="geometry" />
        </mxCell>
        <mxCell id="kKZ3cRjpU5grqQp407fM-68" value="&lt;span style=&quot;font-size: 24px;&quot;&gt;温湿度&lt;/span&gt;" style="rounded=1;whiteSpace=wrap;html=1;fillColor=#fff2cc;strokeColor=#d6b656;" vertex="1" parent="1">
          <mxGeometry x="1040" y="910" width="140" height="60" as="geometry" />
        </mxCell>
      </root>
    </mxGraphModel>
  </diagram>
</mxfile>
